<svg width="33" height="33" viewBox="0 0 33 33" fill="none" xmlns="http://www.w3.org/2000/svg">
<path d="M2.22001 22.2L0.320008 30.4C0.254464 30.6997 0.256711 31.0104 0.326584 31.3091C0.396457 31.6079 0.532191 31.8873 0.723871 32.1269C0.915551 32.3665 1.15833 32.5603 1.43448 32.694C1.71063 32.8278 2.01318 32.8981 2.32001 32.9C2.46298 32.9144 2.60704 32.9144 2.75001 32.9L11 31L26.84 15.22L18 6.39999L2.22001 22.2Z" fill="#07FA00"/>
<path d="M31.82 7.32L25.92 1.42C25.5321 1.03407 25.0072 0.817413 24.46 0.817413C23.9128 0.817413 23.3879 1.03407 23 1.42L19.72 4.7L28.55 13.53L31.83 10.25C32.0219 10.0571 32.1739 9.8282 32.2773 9.57646C32.3807 9.32473 32.4335 9.05507 32.4326 8.78293C32.4316 8.51078 32.377 8.24149 32.2719 7.99047C32.1668 7.73944 32.0132 7.51161 31.82 7.32V7.32Z" fill="#07FA00"/>
</svg>
