<svg width="30" height="32" viewBox="0 0 30 32" fill="none" xmlns="http://www.w3.org/2000/svg">
<path d="M11.7857 5.7143H18.2143C18.2143 4.86182 17.8757 4.04425 17.2729 3.44146C16.6701 2.83866 15.8525 2.50001 15 2.50001C14.1476 2.50001 13.33 2.83866 12.7272 3.44146C12.1244 4.04425 11.7857 4.86182 11.7857 5.7143V5.7143ZM9.85718 5.7143C9.85718 4.35033 10.399 3.04222 11.3635 2.07775C12.328 1.11328 13.6361 0.571442 15 0.571442C16.364 0.571442 17.6721 1.11328 18.6366 2.07775C19.6011 3.04222 20.1429 4.35033 20.1429 5.7143H28.1786C28.4344 5.7143 28.6796 5.81589 28.8605 5.99673C29.0413 6.17757 29.1429 6.42284 29.1429 6.67858C29.1429 6.93433 29.0413 7.1796 28.8605 7.36044C28.6796 7.54128 28.4344 7.64287 28.1786 7.64287H26.4943L24.9296 26.4182C24.8158 27.784 24.1928 29.0572 23.1842 29.9853C22.1757 30.9133 20.8552 31.4285 19.4846 31.4286H10.5155C9.14488 31.4285 7.82438 30.9133 6.81583 29.9853C5.80727 29.0572 5.1843 27.784 5.07046 26.4182L3.50575 7.64287H1.82146C1.56572 7.64287 1.32045 7.54128 1.13961 7.36044C0.958772 7.1796 0.857178 6.93433 0.857178 6.67858C0.857178 6.42284 0.958772 6.17757 1.13961 5.99673C1.32045 5.81589 1.56572 5.7143 1.82146 5.7143H9.85718ZM13.0715 13.1072C13.0715 12.8514 12.9699 12.6061 12.789 12.4253C12.6082 12.2445 12.3629 12.1429 12.1072 12.1429C11.8514 12.1429 11.6062 12.2445 11.4253 12.4253C11.2445 12.6061 11.1429 12.8514 11.1429 13.1072V24.0357C11.1429 24.2915 11.2445 24.5367 11.4253 24.7176C11.6062 24.8984 11.8514 25 12.1072 25C12.3629 25 12.6082 24.8984 12.789 24.7176C12.9699 24.5367 13.0715 24.2915 13.0715 24.0357V13.1072ZM17.8929 12.1429C17.6371 12.1429 17.3919 12.2445 17.211 12.4253C17.0302 12.6061 16.9286 12.8514 16.9286 13.1072V24.0357C16.9286 24.2915 17.0302 24.5367 17.211 24.7176C17.3919 24.8984 17.6371 25 17.8929 25C18.1486 25 18.3939 24.8984 18.5747 24.7176C18.7556 24.5367 18.8572 24.2915 18.8572 24.0357V13.1072C18.8572 12.8514 18.7556 12.6061 18.5747 12.4253C18.3939 12.2445 18.1486 12.1429 17.8929 12.1429Z" fill="#FF3131"/>
</svg>
